# xmcd
#
# Track frame offsets:
#	150
#	8781
#	28121
#	44093
#	55710
#	71905
#	87151
#	96216
#	105079
#	119194
#	128900
#	143235
#
# Disc length: 2026 seconds
#
# Revision: 0
# Processed by: cddbd v1.5.2PL0 Copyright (c) Steve Scherf et al.
# Submitted via: EasyCDDAExtractor 16.0.6.1
#
DISCID=a807e80c
DTITLE=Τζαβέλλας Πάνος-Παπαδοπούλου Νατάσσα - Τα τραγούδια της Κατοχής-LP 1980
DTITLE=, Π. Τζαβέλλας
DYEAR=2008
DGENRE=Αντιστασιακή
TTITLE0=Τζαβέλλας Πάνος - Είμαστε εμείς Ελλάδα [διασκ. Π. Τζαβέλλας]
TTITLE1=Τζαβέλλας Πάνος - Γιούπι για για [διασκ. Π. Τζαβέλλας]
TTITLE2=Παπαδοπούλου Νατάσσα - Για την ανάστασή σου λαέ μας [διασκ. Π. Τζαβέλλ
TTITLE2=ας]
TTITLE3=Τζαβέλλας Πάνος - Ελλάδα μας, Ελλάδα μας [διασκ. Π. Τζαβέλλας]
TTITLE4=Τζαβέλλας Πάνος - Μοιρολόϊ της φυλακής [διασκ. Π. Τζαβέλλας]
TTITLE5=Παπαδοπούλου Νατάσσα - Αγάπη [διασκ. Π. Τζαβέλλας]
TTITLE6=Τζαβέλλας Πάνος - Πατάω ένα κουμπί (Χοντρή) [διασκ. Π. Τζαβέλλας]
TTITLE7=Τζαβέλλας Πάνος - Ψωμί [διασκ. Π. Τζαβέλλας]
TTITLE8=Τζαβέλλας Πάνος - Θρήνος [διασκ. Π. Τζαβέλλας]
TTITLE9=Παπαδοπούλου Νατάσσα - Τραγούδι για την ειρήνη [διασκ. Π. Τζαβέλλας]
TTITLE10=Τζαβέλλας Πάνος - Τα παλληκάρια [διασκ. Π. Τζαβέλλας]
TTITLE11=Τζαβέλλας Πάνος-χορωδία - Το τραγούδι της νίκης [διασκ. Π. Τζαβέλλας]
EXTD=
EXTT0=
EXTT1=
EXTT2=
EXTT3=
EXTT4=
EXTT5=
EXTT6=
EXTT7=
EXTT8=
EXTT9=
EXTT10=
EXTT11=
PLAYORDER=
